<svg width="25" height="25" viewBox="0 0 25 25" fill="none" xmlns="http://www.w3.org/2000/svg">
<path d="M3.8192 7.76187C3.81927 6.99146 4.02198 6.27925 4.38477 5.66186L4.74991 5.04047L5.20408 5.6001C6.79915 7.56554 9.138 8.89746 11.7817 9.19452C11.6188 6.69265 13.5951 4.74554 15.9319 4.74554C17.0262 4.74554 18.0218 5.16427 18.7661 5.85596C19.4413 5.6997 20.0888 5.43566 20.6706 5.08933L21.8085 4.41198L21.4022 5.67238C21.2942 6.00742 21.1449 6.324 20.96 6.61604C21.0509 6.5808 21.141 6.54386 21.2302 6.50532L22.8082 5.82329L21.8422 7.24527C21.364 7.94905 20.7742 8.58003 20.1026 9.10352C20.1038 9.18207 20.1038 9.25795 20.1038 9.32831V9.33594C20.1038 14.3892 16.2542 20.2489 9.19085 20.2489C7.01659 20.2489 4.99807 19.6173 3.30149 18.5291L3.62768 17.6114C3.89951 17.6422 4.16443 17.6529 4.45313 17.6529C5.61921 17.6529 6.715 17.3649 7.67698 16.8535C6.45341 16.4222 5.49321 15.44 5.09846 14.2034L4.8544 13.4389L5.16945 13.4857C4.32605 12.7244 3.79688 11.622 3.79688 10.3906V10.346V9.49052L4.35203 9.8032C4.33773 9.77776 4.32369 9.75216 4.30991 9.7264C3.98673 9.12208 3.81814 8.44717 3.8192 7.76187ZM3.8192 7.76187C3.8192 7.76173 3.8192 7.7616 3.8192 7.76146L4.3192 7.76228H3.8192C3.8192 7.76214 3.8192 7.762 3.8192 7.76187ZM4.5748 6.40773C4.64272 6.23693 4.72339 6.07252 4.81585 5.91518M4.5748 6.40773L5.16295 6.321C5.04383 6.1888 4.92809 6.05348 4.81585 5.91518M4.5748 6.40773C4.52512 6.34911 4.47606 6.28995 4.42761 6.23025L4.81585 5.91518M4.5748 6.40773L4.81585 5.91518M2.67857 0.5H22.3214C23.5241 0.5 24.5 1.47592 24.5 2.67857V22.3214C24.5 23.5241 23.5241 24.5 22.3214 24.5H2.67857C1.47592 24.5 0.5 23.5241 0.5 22.3214V2.67857C0.5 1.47592 1.47592 0.5 2.67857 0.5Z" fill="#918E9B" stroke="black"/>
</svg>
